<svg xmlns="http://www.w3.org/2000/svg" width="175" height="64" viewBox="0 0 175 64" fill="none"><metadata><rdf:RDF xmlns:rdf="http://www.w3.org/1999/02/22-rdf-syntax-ns#" xmlns:dc="http://purl.org/dc/elements/1.1/"><rdf:Description><dc:creator>RealFaviconGenerator</dc:creator><dc:source>https://realfavicongenerator.net</dc:source></rdf:Description></rdf:RDF></metadata><path d="M35.0588 0.17102C34.4418 0.301901 33.3948 0.507571 32.7217 0.619755L31.5063 0.806728L32.7778 0.750636C33.4696 0.713242 34.0305 0.731939 34.0305 0.769334C34.0305 0.806728 33.8061 1.04979 33.5257 1.31156C33.2265 1.57332 33.133 1.74159 33.2826 1.6855C35.7693 0.844123 36.162 0.769334 37.7512 0.881517C39.1909 0.975004 39.3218 0.975004 38.8918 0.731939C38.4243 0.470177 38.443 0.470177 39.2657 0.432782C40.0323 0.395388 39.9949 0.37669 38.8918 0.264507C38.2187 0.189717 37.3399 0.0775337 36.9286 0.0214418C36.5172 -0.0346501 35.6758 0.0214418 35.0588 0.17102Z" fill="white"></path><path d="M39.6937 1.92835C39.3385 2.37708 39.0393 2.50796 37.5435 2.80712L35.8047 3.16237L37.4127 3.21846L39.0206 3.27455L38.9271 4.13463C38.8149 5.10689 38.8336 5.10689 40.1425 4.04114C40.9277 3.42413 40.9651 3.40543 42.4422 3.48022C43.2649 3.51762 43.938 3.51762 43.938 3.51762C43.938 3.49892 43.6201 3.29325 43.2462 3.06888L42.5357 2.63884L43.1901 2.39578C43.8445 2.17141 43.8445 2.17141 42.6292 2.15271C41.7504 2.13402 41.2643 2.02183 40.8529 1.76007C40.1425 1.29264 40.1611 1.29264 39.6937 1.92835Z" fill="white"></path><path d="M22.5288 2.30208C20.6404 3.14346 19.5559 3.76047 19.0698 4.28399C18.6958 4.69533 18.8828 4.62055 19.9112 3.94744C20.6404 3.48001 21.8744 2.90039 22.6971 2.65733C23.8189 2.32078 24.0994 2.1712 23.9124 2.00292C23.7067 1.85334 23.3702 1.92813 22.5288 2.30208Z" fill="white"></path><path d="M27.7088 2.50775C26.2318 3.01258 26.1009 3.01258 25.4652 2.75082C24.7921 2.47036 24.7734 2.47036 24.2872 3.03128C24.0068 3.33043 23.7076 3.72308 23.6328 3.87266C23.5394 4.02223 22.6793 4.54576 21.707 5.01319C20.7535 5.49932 20.0056 5.92936 20.0243 5.96675C20.0617 5.98545 20.6974 5.87327 21.4079 5.68629C22.1371 5.49932 22.7354 5.36844 22.7541 5.38714C22.7728 5.40583 22.6793 5.83587 22.5297 6.3407C22.3801 6.82683 22.2492 7.33166 22.2492 7.44384C22.2492 7.55602 22.8663 7.0325 23.6141 6.28461L24.979 4.9384L26.8301 4.69534L28.6998 4.45227L27.9145 4.02223C27.4845 3.77917 27.1666 3.49871 27.2227 3.42392C27.2601 3.33043 27.8397 2.97518 28.4754 2.61994C29.859 1.81595 29.7468 1.79725 27.7088 2.50775Z" fill="white"></path><path d="M47.2282 2.15264C47.2843 2.24613 47.2095 2.33962 47.0786 2.33962C46.9477 2.35831 47.3778 2.4331 48.0509 2.50789C48.724 2.58268 49.2849 2.63877 49.3223 2.60138C49.341 2.58268 48.8735 2.4331 48.2378 2.26483C47.6208 2.11525 47.1721 2.05916 47.2282 2.15264Z" fill="white"></path><path d="M49.5497 3.61157C49.961 3.68636 50.2789 3.87333 50.4097 4.15379C50.5967 4.52774 50.6528 4.54643 50.8585 4.28467C50.9893 4.13509 51.2324 4.00421 51.4007 4.00421C51.6438 3.98552 51.6438 3.94812 51.3446 3.72375C51.1015 3.53678 50.5967 3.44329 49.9423 3.46199C49.0448 3.48069 48.9887 3.51808 49.5497 3.61157Z" fill="white"></path><path d="M45.1553 4.994L45.2861 5.79798L44.0521 6.3215C43.3603 6.62066 42.7807 6.90112 42.7433 6.97591C42.7059 7.032 43.3229 7.0694 44.1082 7.032L45.5479 6.97591L45.9031 8.09775C46.0901 8.73345 46.2958 9.23828 46.3519 9.23828C46.408 9.23828 46.6697 8.73345 46.8941 8.11644L47.3428 6.99461L48.2964 6.95721C48.8386 6.95721 49.3808 6.93851 49.5117 6.93851C49.8857 6.95721 49.7735 6.84503 48.8947 6.3215C48.4273 6.05974 48.0533 5.79798 48.0533 5.72319C48.0533 5.6671 48.259 5.34924 48.5208 5.01269L48.9882 4.39568L47.9411 4.76963L46.8754 5.12488L46.0714 4.65744C45.6414 4.39568 45.23 4.19001 45.1553 4.19001C45.0992 4.19001 45.0992 4.54526 45.1553 4.994Z" fill="white"></path><path d="M52.6157 5.05161C52.6344 5.57513 52.7092 5.68732 53.0458 5.68732C53.2701 5.68732 53.6254 5.91168 53.8497 6.19214C54.1863 6.65958 54.1863 6.60348 53.775 5.7808C53.5319 5.25728 53.1579 4.75245 52.971 4.64027C52.6344 4.4346 52.6157 4.47199 52.6157 5.05161Z" fill="white"></path><path d="M33.6532 5.61262L32.0639 6.24833L31.0169 5.68741C30.4372 5.38825 29.9137 5.12649 29.8576 5.12649C29.8202 5.12649 29.7081 5.65002 29.6333 6.28572L29.5211 7.46365L27.6514 8.47331C26.623 9.03423 25.819 9.50166 25.8377 9.52036C25.8751 9.53906 26.7165 9.46427 27.7261 9.33339C28.7358 9.2212 29.5959 9.16511 29.6146 9.2212C29.652 9.27729 29.7455 9.87561 29.8202 10.5487C29.895 11.2218 29.9885 11.8388 30.0446 11.9136C30.1007 11.9884 30.5494 11.3901 31.073 10.5487C31.5778 9.70733 32.1013 8.99683 32.2322 8.94074C32.3631 8.88465 33.2979 8.79116 34.3263 8.71637L36.1773 8.58549L34.9059 7.875C33.4662 7.05231 33.4662 6.99622 34.8498 5.72481C35.3172 5.29477 35.5977 4.93952 35.4668 4.93952C35.3546 4.95822 34.5319 5.23868 33.6532 5.61262Z" fill="white"></path><path d="M55.3074 6.62119C55.6065 7.08862 55.9057 7.59345 55.9618 7.74303C56.0366 7.9487 56.0739 7.9113 56.0739 7.64954C56.0739 7.44387 55.7935 6.93904 55.4195 6.5277L54.7651 5.77981L55.3074 6.62119Z" fill="white"></path><path d="M53.1194 7.70629C52.9698 8.04285 52.8016 8.3607 52.7081 8.41679C52.6146 8.47288 52.1658 8.28591 51.6797 8.00545L50.8196 7.50062L51.3058 8.45419C51.5675 8.97771 51.7919 9.50124 51.7919 9.63212C51.7919 9.7443 51.4367 10.2678 51.0066 10.7913L50.2026 11.7262L51.044 11.5953C51.5114 11.5205 52.0724 11.4271 52.2967 11.371C52.652 11.2775 52.8016 11.4458 53.3625 12.5489L54.0169 13.8203L54.0356 12.3806V10.9596L54.69 10.7353C55.0452 10.6231 55.3444 10.4548 55.3444 10.3987C55.3444 10.3239 54.9704 10.0248 54.503 9.7443C53.8112 9.29556 53.6616 9.10859 53.6429 8.62246C53.6242 8.28591 53.5681 7.81848 53.4934 7.55672C53.3625 7.10798 53.3625 7.10798 53.1194 7.70629Z" fill="white"></path><path d="M12.4159 9.4639C10.5649 11.3897 9.49917 12.6798 9.64875 12.8481C9.70484 12.9042 9.61136 13.2034 9.46178 13.5212C8.88216 14.6057 9.18132 14.3065 10.2471 12.6798C11.1445 11.3336 11.5746 10.8662 12.5094 10.2679C13.5565 9.61348 13.6313 9.5013 13.3508 9.29563C13.033 9.07126 13.0703 8.99647 13.65 8.39815C14.0052 8.04291 14.2483 7.74375 14.1922 7.74375C14.1361 7.74375 13.3321 8.52904 12.4159 9.4639Z" fill="white"></path><path d="M17.7629 9.08871C17.015 9.63094 16.2484 10.1919 16.0802 10.3227C15.781 10.5284 15.6314 10.5097 14.9957 10.1919L14.2478 9.81791L13.93 11.1641C13.6495 12.3607 13.4812 12.6412 12.5464 13.6322C10.5832 15.7076 10.5645 15.7263 12.1163 14.9597L13.4625 14.2866V15.9132V17.5586L13.8552 16.7172C14.0608 16.2498 14.4909 15.3523 14.8087 14.6979L15.4071 13.5387L17.0524 13.0151C17.9499 12.7347 18.6978 12.4542 18.6978 12.3794C18.6978 12.3233 18.2677 12.0242 17.7629 11.725L16.8093 11.1828L17.5011 10.2479C17.8751 9.74312 18.4547 9.05132 18.7539 8.71477C19.0717 8.39691 19.2774 8.11645 19.24 8.11645C19.1839 8.11645 18.5108 8.56519 17.7629 9.08871Z" fill="white"></path><path d="M41.8614 10.1736L40.4404 11.0711L39.0568 10.2671C38.3089 9.81835 37.6732 9.4631 37.6358 9.4818C37.6171 9.5192 37.7667 10.1923 37.9724 11.015C38.2529 12.1742 38.2902 12.5295 38.1033 12.6229C37.9724 12.6977 37.1871 13.24 36.3644 13.8196L34.8687 14.8853L36.5888 14.7544C37.5237 14.6796 38.4585 14.6049 38.6268 14.5862C38.8699 14.5675 39.0942 14.9414 39.4869 16.0632C39.786 16.8859 40.0665 17.6899 40.1226 17.8395C40.1787 17.9891 40.4965 17.2786 40.8331 16.2502L41.4314 14.3805L42.7215 14.2309C43.4507 14.1374 44.2734 14.0252 44.5538 13.9505C45.0774 13.8196 45.0587 13.8009 43.8994 13.1278C43.245 12.7351 42.6093 12.3425 42.4784 12.2677C42.2915 12.1368 42.3662 11.8003 42.815 10.7532C43.1328 10.0053 43.3759 9.35092 43.3385 9.33222C43.3011 9.29483 42.628 9.66877 41.8614 10.1736Z" fill="white"></path><path d="M57.8701 11.2201L57.9823 11.9119L57.3279 11.5193C56.9539 11.2949 56.6548 11.164 56.6548 11.2014C56.6548 11.2388 56.9539 11.7624 57.3092 12.3607C57.9823 13.4825 58.0758 14.0434 57.7766 15.3148C57.6831 15.7262 57.6457 16.0814 57.6831 16.1188C57.7205 16.1749 58.0384 16.0253 58.3936 15.801C59.1228 15.3522 59.1228 15.3335 59.9268 16.8667C60.226 17.3902 60.4877 17.8203 60.5251 17.7829C60.5438 17.7455 60.3755 17.035 60.1325 16.1936C59.7024 14.81 59.6837 14.6043 59.9268 14.1556C60.3007 13.4451 60.3007 13.4451 59.5342 12.959C59.0667 12.6785 58.7115 12.2298 58.3936 11.538C57.8514 10.3788 57.6831 10.2666 57.8701 11.2201Z" fill="white"></path><path d="M24.6255 13.3709L22.8119 14.6797L21.5404 13.9318C20.8486 13.5018 20.2503 13.2587 20.2129 13.3709C20.1755 13.4831 20.2503 14.2497 20.3812 15.0724C20.5308 16.1194 20.5308 16.6243 20.3999 16.699C20.1942 16.8299 17.3896 19.541 17.3896 19.6158C17.3896 19.6345 18.2123 19.4662 19.2033 19.2232C20.1942 18.9801 21.0169 18.7931 21.0356 18.8305C21.0543 18.8492 21.26 19.6906 21.503 20.6816C21.9518 22.4952 22.1014 22.7383 22.3257 21.8595C22.4005 21.5977 22.6997 20.6816 23.0175 19.8028C23.5037 18.494 23.6719 18.2135 23.9898 18.2135C24.2141 18.1948 25.149 18.0452 26.0839 17.877L27.7666 17.5591L26.2148 16.643C25.3734 16.1568 24.6816 15.7081 24.6816 15.6333C24.6816 15.5772 25.1116 14.7545 25.6164 13.7823C26.14 12.8287 26.5326 12.0434 26.5139 12.0434C26.4765 12.0434 25.6351 12.6417 24.6255 13.3709Z" fill="white"></path><path d="M61.5127 13.7078C61.8118 14.2687 61.7557 14.5679 61.4192 14.2874C60.9705 13.9135 61.0826 14.2126 61.8679 15.4654C62.3915 16.288 62.6906 17.0546 62.915 18.1204C63.0833 18.9431 63.2515 19.6349 63.2889 19.6723C63.3263 19.7096 63.4011 19.4666 63.4759 19.13L63.6068 18.513L64.0555 19.2609C64.6164 20.1958 64.6164 19.9901 64.0555 18.5317C63.8124 17.896 63.5133 16.9611 63.3824 16.475C63.2515 15.9889 62.9524 15.428 62.728 15.2597C62.5036 15.0727 62.1297 14.5679 61.9053 14.1379C61.681 13.7078 61.4566 13.3526 61.4005 13.3526C61.3631 13.3526 61.4005 13.5208 61.5127 13.7078Z" fill="white"></path><path d="M51.4359 14.512C51.0246 15.1851 49.8653 16.5313 49.6971 16.5313C49.6223 16.5313 48.9866 16.1761 48.2948 15.7647C47.5843 15.3347 46.9673 14.9608 46.8925 14.9234C46.8177 14.8673 47.0794 15.6339 47.4721 16.6061L48.2013 18.3637L46.8177 19.7286C46.0698 20.4765 45.4715 21.1309 45.5276 21.1683C45.5837 21.243 47.2664 21 48.6313 20.7195C49.0987 20.626 49.1735 20.7195 49.9401 22.5332L50.7628 24.459L50.8937 23.7111C50.9498 23.3184 51.062 22.3649 51.1367 21.6357L51.2676 20.2708L51.9594 20.0838C52.3334 19.9903 52.7634 19.8968 52.913 19.8968C53.0626 19.8781 53.4365 19.7847 53.7357 19.6538L54.2779 19.4107L52.913 18.588L51.5668 17.7654L51.6977 15.933C51.7538 14.9234 51.7912 14.1007 51.7538 14.1007C51.7164 14.1007 51.5668 14.2877 51.4359 14.512Z" fill="white"></path><path d="M35.6167 18.5133C35.2053 18.8685 34.4387 19.4855 33.9152 19.8969L32.9617 20.6448L31.335 19.6912C30.4375 19.1677 29.6709 18.775 29.6335 18.8124C29.5962 18.8498 29.8018 19.7099 30.1197 20.7196L30.6806 22.5332L29.4279 23.6924C28.7361 24.3281 27.9695 25.0012 27.7264 25.1882C27.4834 25.3939 27.3151 25.5809 27.3712 25.6369C27.4086 25.6743 28.3434 25.5809 29.4466 25.4126C30.5497 25.2443 31.5033 25.1695 31.5781 25.2443C31.6529 25.3378 31.8585 25.7865 32.0268 26.254C32.1951 26.7214 32.5129 27.6002 32.7373 28.2172L33.1486 29.3203L33.7469 27.1327C34.0835 25.9174 34.3826 24.8891 34.4387 24.8517C34.4948 24.7956 35.4297 24.646 36.5328 24.4964C37.636 24.3468 38.5708 24.1973 38.6269 24.1599C38.6643 24.1225 37.9351 23.6176 37.019 23.0567C36.0467 22.4771 35.3362 21.9162 35.3362 21.7479C35.3362 21.5983 35.598 20.7196 35.8971 19.8034C36.215 18.8872 36.4393 18.0832 36.4207 18.0084C36.3833 17.9337 36.028 18.158 35.6167 18.5133Z" fill="white"></path><path d="M9.63093 19.9898L8.56519 21.5977L7.91078 21.2051C7.55554 20.9994 7.21899 20.8311 7.16289 20.8311C7.1068 20.8311 7.1068 21.5416 7.18159 22.4204C7.27508 23.617 7.25638 24.1219 7.05071 24.5145C6.90113 24.795 6.54588 25.6737 6.28412 26.4403L5.7793 27.8426L6.58328 27.0387C7.03201 26.6086 7.44335 26.2534 7.49944 26.2534C7.55554 26.2534 7.76121 26.9826 7.96688 27.88L8.30343 29.5254L8.62128 27.5061C8.80825 26.4029 8.99522 25.3559 9.05132 25.225C9.10741 25.0754 9.70572 24.6828 10.3788 24.3462C11.0519 24.0097 11.5941 23.6731 11.5941 23.5983C11.5941 23.5236 11.1828 23.2431 10.6593 22.9439C10.1545 22.6635 9.72442 22.2895 9.72442 22.1213C9.72442 21.9717 9.96748 21.0929 10.2853 20.1767C10.5845 19.2606 10.8089 18.494 10.7715 18.4566C10.7341 18.4192 10.2105 19.0923 9.63093 19.9898Z" fill="white"></path><path d="M5.61001 20.0272C4.74993 22.1026 4.3012 23.7666 4.3199 24.8511C4.33859 25.786 4.33859 25.7673 4.65645 24.2902C5.0117 22.6635 5.32955 21.9343 6.11483 21.0181C6.60096 20.4385 6.60096 20.4011 6.26441 20.1581C5.94656 19.915 5.92786 19.8215 6.13353 19.298C6.24571 18.9801 6.3205 18.681 6.28311 18.6436C6.24571 18.6062 5.94656 19.2232 5.61001 20.0272Z" fill="white"></path><path d="M58.9143 19.9149C58.8021 20.4758 58.5964 21.1489 58.4656 21.4294L58.2412 21.9342L57.082 21.1863C56.4276 20.775 55.904 20.5319 55.904 20.6254C55.904 20.7002 56.2032 21.4294 56.5584 22.2147C56.9137 23.0186 57.2129 23.8039 57.2129 23.9722C57.2129 24.1592 56.8389 24.9632 56.3715 25.7671C55.904 26.5898 55.5675 27.2816 55.6049 27.319C55.6423 27.3564 56.2406 27.1694 56.9324 26.9077C57.6242 26.6459 58.2412 26.4402 58.316 26.4402C58.3721 26.4402 58.7273 27.2442 59.0826 28.2539L59.737 30.0488L59.7931 27.8238L59.8492 25.5989L60.8775 24.9632L61.9246 24.3462L60.8027 23.5983L59.6996 22.8691L59.5687 21.4107C59.4939 20.588 59.363 19.6905 59.2882 19.4101C59.1761 18.9426 59.1387 18.98 58.9143 19.9149Z" fill="white"></path><path d="M82.4572 19.6908C81.4289 20.0087 80.7558 20.4948 80.4005 21.2053C79.4657 23.0376 80.1949 24.4212 83.1116 26.3471C83.9343 26.8893 84.7757 27.4876 85.0001 27.6746C86.2715 28.8151 86.0284 30.4231 84.4578 31.2271C83.6725 31.6384 82.3263 31.4514 81.0362 30.7596L80.0079 30.1987L79.8022 30.6661C79.5218 31.2644 79.8957 31.5449 81.4663 31.9749C83.1116 32.4237 84.7944 32.2741 85.8227 31.601C86.8324 30.9466 87.3933 29.7313 87.2624 28.5533C87.1128 27.2071 86.421 26.4218 84.0278 24.8326C81.5972 23.2246 81.1671 22.6637 81.5411 21.5979C81.8028 20.8314 82.5694 20.4574 83.8221 20.4574C84.9627 20.4574 85.4488 20.7379 85.7292 21.5605C85.8227 21.8784 85.991 22.1589 86.0845 22.1776C86.3276 22.2523 86.8137 20.4387 86.608 20.233C86.1032 19.7282 83.4856 19.3917 82.4572 19.6908Z" fill="white"></path><path d="M137.37 19.6541C137.09 19.7102 136.547 20.0281 136.192 20.402C135.538 21.0377 135.519 21.1125 135.594 22.1408C135.65 22.9448 135.818 23.4497 136.267 24.1228L136.846 25.0202L135.837 25.9177C134.434 27.1704 134.061 27.8435 134.061 29.0962C134.061 31.0408 135.22 32.0691 137.594 32.2C139.184 32.2748 140.586 31.8821 141.633 31.0408L142.194 30.592L143.035 31.2838C143.503 31.6765 143.989 32.0504 144.101 32.1252C144.325 32.2561 145.466 31.5643 145.466 31.3025C145.466 31.2277 145.111 30.9099 144.681 30.592C143.035 29.3767 143.129 29.545 143.652 28.8345C144.064 28.2736 144.905 26.7591 144.905 26.5721C144.905 26.516 144.699 26.3477 144.456 26.1795C144.007 25.899 143.989 25.899 143.727 26.7217C143.559 27.1704 143.241 27.8435 142.979 28.1988L142.53 28.8719L140.735 27.0208C139.726 25.9925 138.922 25.0763 138.922 24.9828C138.922 24.8894 139.258 24.5715 139.67 24.291C141.184 23.244 141.633 21.5986 140.679 20.4768C140.006 19.6728 138.959 19.411 137.37 19.6541ZM139.726 20.8694C139.894 21.0751 140.044 21.5425 140.044 21.8978C140.044 22.44 139.875 22.7205 139.184 23.431L138.324 24.291L137.875 23.7301C137.202 22.8887 136.977 22.0848 137.239 21.3182C137.576 20.2524 138.997 20.0094 139.726 20.8694ZM139.427 27.8809C141.577 30.1246 141.596 30.1807 140.231 30.8725C138.791 31.6204 136.996 31.3399 136.155 30.2742C135.65 29.6385 135.612 28.3671 136.042 27.507C136.323 26.9461 137.202 25.8803 137.389 25.8803C137.445 25.8803 138.361 26.7778 139.427 27.8809Z" fill="white"></path><path d="M154.01 19.877C150.177 21.1484 148.364 25.5797 150.252 29.0761C150.869 30.1979 151.673 30.9271 153.001 31.6189C154.833 32.5538 158.012 32.3855 159.769 31.2824C160.629 30.7401 160.667 30.684 160.461 30.1418C160.349 29.8614 160.237 29.8801 159.507 30.3849C156.366 32.479 152.814 31.3571 151.654 27.8794C150.364 24.0839 152.477 20.4379 155.955 20.4192C157.974 20.4192 159.395 21.2419 159.619 22.5507C159.769 23.5043 160.031 23.3734 160.442 22.1768L160.779 21.2045L160.012 20.7184C158.236 19.5965 155.88 19.26 154.01 19.877Z" fill="white"></path><path d="M92.7398 21.5611C91.2814 22.0099 89.8043 23.2065 89.1312 24.4779C88.5329 25.6371 88.4768 27.7873 88.9816 29.0027C90.4026 32.2747 94.8152 33.2656 97.6385 30.9285C98.0311 30.6106 98.592 29.8253 98.9099 29.1896C100.032 26.9273 99.583 24.4405 97.7881 22.8325C96.4418 21.6172 94.3104 21.0937 92.7398 21.5611ZM95.9557 22.7952C97.732 23.9731 98.4238 27.2825 97.3393 29.3953C96.3297 31.3398 93.8803 32.0316 92.1415 30.8537C91.0944 30.1432 90.4587 28.8905 90.3465 27.2825C90.2344 25.525 90.5335 24.4405 91.3749 23.4683C92.5154 22.1221 94.4973 21.8416 95.9557 22.7952Z" fill="white"></path><path d="M166.088 21.6547C163.751 22.4213 162.273 24.4967 162.273 27.0022C162.273 28.5914 162.722 29.6759 163.844 30.7603C166.443 33.2471 170.949 32.4431 172.613 29.1898C173.174 28.0866 173.286 25.9738 172.856 24.8146C172.426 23.6927 171.416 22.6083 170.276 22.0287C169.135 21.4491 167.228 21.2808 166.088 21.6547ZM168.556 22.3465C169.603 22.6083 170.781 23.7675 171.173 24.9081C171.566 26.086 171.529 28.2175 171.099 29.1524C170.201 31.0969 168.107 31.957 166.312 31.1343C164.779 30.4238 163.9 28.8158 163.937 26.7217C163.956 24.3845 165.041 22.7579 166.873 22.3091C167.677 22.1222 167.658 22.1222 168.556 22.3465Z" fill="white"></path><path d="M101.337 21.6169C101.318 21.6543 101.299 24.0101 101.281 26.8521L101.243 32.0312L104.515 32.0126C107.769 32.0126 108.049 31.9565 108.068 31.3395C108.068 31.1712 107.432 31.1151 105.544 31.1151H103.019L102.907 30.629C102.832 30.3672 102.814 28.217 102.87 25.8611L102.945 21.5795H102.141C101.692 21.5795 101.337 21.5982 101.337 21.6169Z" fill="white"></path><path d="M109.475 26.8155V32.0508H110.279H111.064V26.8155V21.5803H110.279H109.475V26.8155Z" fill="white"></path><path d="M113.305 26.8334V32.0312L116.67 32.0126C118.521 32.0126 120.036 31.9378 120.036 31.863C120.036 31.7695 120.092 31.5825 120.148 31.4142C120.241 31.1525 119.961 31.1151 117.624 31.1151H114.987V29.0584V27.0017H117.138C118.316 27.0017 119.288 26.9269 119.288 26.8334C119.288 26.7399 119.344 26.5155 119.419 26.3473C119.531 26.0481 119.381 26.0294 117.773 26.1416C116.801 26.2164 115.773 26.2164 115.492 26.1603L114.987 26.0294V24.2719V22.5143H117.418C118.764 22.5143 119.849 22.4395 119.849 22.3461C119.849 22.2526 119.886 22.0469 119.942 21.8973C120.036 21.6916 119.512 21.6356 116.67 21.6356H113.305V26.8334Z" fill="white"></path><path d="M120.782 21.6551C120.782 21.7112 121.231 22.8517 121.792 24.2353C122.353 25.6002 123.232 27.9187 123.774 29.3771L124.746 32.0508H125.438H126.13L127.326 28.7227C127.981 26.909 128.841 24.628 129.233 23.6557C129.626 22.6834 129.944 21.8234 129.944 21.7299C129.944 21.6551 129.72 21.5803 129.439 21.5803C128.934 21.5803 128.878 21.7112 128.112 23.8801C126.747 27.6943 125.98 29.7136 125.83 29.8632C125.681 30.0315 124.26 26.5725 123.194 23.3939L122.577 21.5803H121.68C121.194 21.5803 120.782 21.6177 120.782 21.6551Z" fill="white"></path><path d="M16.9952 24.4403L15.6116 26.0109L14.3963 25.263C13.7232 24.8516 13.1249 24.4964 13.0501 24.459C12.9192 24.3842 13.7606 27.6562 13.9289 27.9554C13.9849 28.0302 13.6671 28.6846 13.1997 29.3951C12.7509 30.1056 12.2461 30.9469 12.0778 31.2461L11.7974 31.807L13.1249 31.2648C13.8728 30.9656 14.5646 30.76 14.658 30.7974C14.7702 30.8535 15.1629 31.7135 15.5181 32.7232L16.1725 34.5742L16.5091 32.2931L16.8643 30.0308L18.304 29.6381C19.108 29.4138 19.8746 29.2455 20.0429 29.2455C20.716 29.2455 20.4542 28.9463 19.0145 28.0863C18.1731 27.5627 17.4626 27.1327 17.4626 27.1327C17.4439 27.114 17.6683 26.1791 17.9675 25.0386C18.2479 23.9168 18.4536 22.9632 18.4162 22.9258C18.3788 22.8884 17.7431 23.5615 16.9952 24.4403Z" fill="white"></path><path d="M64.6922 23.8231C64.6735 24.0848 64.6361 24.3653 64.5987 24.4775C64.58 24.571 64.5426 24.9823 64.5426 25.375L64.5052 26.0855L63.6825 25.5245L62.8599 24.9636L63.5143 26.6651C64.1126 28.273 64.1313 28.4039 63.9256 29.3949C63.8134 29.9745 63.6078 30.7785 63.4582 31.1711C63.3086 31.5825 63.2338 31.9564 63.2712 31.9938C63.3086 32.0499 63.6825 31.7694 64.1126 31.3955L64.8605 30.7224L65.1409 31.7133C65.2905 32.2556 65.4588 32.8726 65.4962 33.0782C65.5523 33.2839 65.5897 32.536 65.6084 31.4329C65.6271 29.8249 65.7018 29.264 66.001 28.6844C66.5058 27.7121 66.4684 27.4691 65.814 27.0016C65.4962 26.7773 65.2531 26.422 65.2531 26.1976C65.2344 25.4497 64.7296 23.337 64.6922 23.8231Z" fill="white"></path><path d="M45.9035 25.8792C45.0808 26.7019 44.3516 27.375 44.2955 27.375C44.2207 27.375 43.4167 26.9263 42.5193 26.3653C41.6031 25.8044 40.8365 25.3557 40.8178 25.3931C40.7991 25.4118 41.117 26.3466 41.5283 27.4685L42.2949 29.5252L40.5373 31.1518C39.0042 32.6102 38.8733 32.7785 39.3594 32.7037C43.585 31.9932 43.2111 31.881 44.0524 34.2182C44.4638 35.4148 44.8003 36.0879 44.8751 35.9384C44.9499 35.8075 45.2117 34.8539 45.4547 33.8256C45.6791 32.7972 45.9409 31.8997 45.9969 31.8063C46.0717 31.7315 46.8757 31.5445 47.7919 31.3762C48.708 31.2266 49.5868 31.0584 49.7177 31.0023C49.886 30.9462 49.3625 30.5161 48.3528 29.9178C47.4553 29.3569 46.6887 28.8708 46.6513 28.8334C46.6327 28.8147 46.7822 27.7863 47.0253 26.571C47.2497 25.3744 47.4366 24.3834 47.4179 24.3834C47.3992 24.3834 46.7261 25.0565 45.9035 25.8792Z" fill="white"></path><path d="M66.9935 28.1787C67.3487 29.0949 67.5357 30.9646 67.4609 32.4791L67.3487 34.1992L67.6105 33.2644C67.7975 32.5913 67.8348 31.7873 67.7601 30.3102C67.6479 28.5526 67.5918 28.2722 67.2552 28.0852C66.9561 27.9356 66.9 27.9356 66.9935 28.1787Z" fill="white"></path><path d="M27.4863 30.6481L25.897 32.2374L24.2142 31.2277C23.2794 30.6668 22.4941 30.2368 22.4754 30.2742C22.438 30.3116 22.6998 31.153 23.0737 32.1439C23.4476 33.1162 23.7468 34.0323 23.7468 34.1632C23.7468 34.2754 23.1485 35.0607 22.438 35.8647C21.7088 36.6874 21.1666 37.3792 21.204 37.4165C21.2414 37.4539 22.008 37.3605 22.9054 37.1922C23.8029 37.0239 24.6256 36.9304 24.7565 36.9678C24.8686 37.0239 25.2987 37.9214 25.71 38.9871L26.4392 40.9316L26.8692 39.0619C27.1123 38.0336 27.3367 37.0052 27.3928 36.7995C27.4676 36.4443 27.6919 36.3695 29.543 36.1638C30.6648 36.0329 31.5996 35.8834 31.5996 35.8086C31.5996 35.7525 30.8331 35.229 29.9169 34.668C28.8885 34.051 28.2341 33.5275 28.2341 33.3405C28.2341 33.1723 28.4398 32.1813 28.7016 31.1156C28.9633 30.0685 29.1503 29.171 29.1129 29.1336C29.0942 29.0962 28.3463 29.788 27.4863 30.6481Z" fill="white"></path><path d="M56.6546 31.2264C55.9815 32.3108 54.9158 33.7318 54.7475 33.7318C54.6727 33.7318 53.9996 33.3578 53.2517 32.9091C52.5038 32.4417 51.8681 32.1051 51.8307 32.1425C51.7933 32.1612 52.0738 33.0587 52.4477 34.1244L53.1208 36.0316L52.5038 36.7047C52.1673 37.0786 51.4755 37.8265 50.952 38.35C50.4471 38.8922 50.0919 39.341 50.1854 39.341C50.2789 39.341 51.1015 39.1727 52.0177 38.9483C52.9339 38.724 53.7379 38.6118 53.7939 38.6679C53.85 38.724 54.0744 39.4906 54.3175 40.3693C54.5418 41.2481 54.7662 41.996 54.8223 42.0521C54.8784 42.1082 55.1588 41.2481 55.4393 40.145C55.7385 39.0418 56.0563 38.0322 56.1685 37.92C56.2807 37.8078 56.9912 37.49 57.7391 37.2095C58.4683 36.929 59.0479 36.6112 58.9918 36.5364C58.9357 36.4429 58.3935 36.069 57.7765 35.695C57.1594 35.3211 56.6546 34.9471 56.6546 34.8723C56.6546 34.7975 56.7855 33.8627 56.9351 32.7969C57.1034 31.7499 57.1968 30.7963 57.1594 30.6841C57.1221 30.5719 56.8977 30.815 56.6546 31.2264Z" fill="white"></path><path d="M3.4787 33.5089C3.51609 34.9859 3.62828 36.3321 3.72176 36.5004C3.85264 36.7248 3.87134 36.5004 3.81525 35.7899C3.75916 35.229 3.79655 34.3876 3.90874 33.9202C4.05831 33.2658 4.03962 33.0227 3.83395 32.7984C3.70307 32.6488 3.53479 32.1439 3.4974 31.6765C3.4413 31.2091 3.4413 32.0318 3.4787 33.5089Z" fill="white"></path><path d="M63.3102 36.93C62.9175 37.8462 62.5436 38.5941 62.4688 38.5941C62.4127 38.5941 61.9827 38.3323 61.5152 38.0331C61.0478 37.734 60.6178 37.4722 60.5617 37.4722C60.5056 37.4722 60.5991 38.2388 60.8047 39.1737L61.16 40.8938L60.5056 41.8474C60.1503 42.3709 59.6081 43.1562 59.2716 43.5862C58.9537 44.035 58.748 44.3902 58.8415 44.3902C58.9163 44.3902 59.5146 44.0911 60.169 43.7545L61.3283 43.1188L61.3657 43.8106C61.3657 44.1846 61.3844 44.8577 61.3657 45.3064C61.347 46.3721 61.5339 46.0917 62.2818 43.8667C62.7867 42.3335 62.9736 42.0344 63.8711 41.1743L64.8807 40.2207L64.2076 39.7533C63.6093 39.3607 63.5532 39.2298 63.6467 38.7249C63.9085 37.2666 64.1516 35.3781 64.0955 35.322C64.0768 35.3033 63.7215 36.0138 63.3102 36.93Z" fill="white"></path><path d="M77.7812 35.6021C77.7812 35.733 94.104 35.7891 126.394 35.7891C158.684 35.7891 175.007 35.733 175.007 35.6021C175.007 35.4712 158.684 35.4151 126.394 35.4151C94.104 35.4151 77.7812 35.4712 77.7812 35.6021Z" fill="white"></path><path d="M3.21593 40.0532C1.40229 40.7076 0.523523 41.979 0.523523 43.9235C0.523523 46.0924 1.42099 47.289 4.82389 49.6075C6.91799 51.0472 7.38542 51.6268 7.38542 52.8608C7.38542 53.6648 7.31063 53.8331 6.69362 54.4127C6.03922 54.9923 5.88964 55.0484 4.82389 55.0484C3.51509 55.0484 1.96321 54.4501 1.10314 53.6274L0.61701 53.16L0.317854 53.964C0.130881 54.4127 0 54.8801 0 55.011C0 55.385 2.28107 56.3385 3.64597 56.5255C4.99217 56.7312 6.8058 56.5255 7.64718 56.0768C9.19905 55.2728 10.003 53.6835 9.87216 51.7016C9.70388 49.5327 8.76902 48.3174 5.497 46.1298C3.27202 44.6153 2.89808 44.204 2.89808 43.1756C2.89808 41.792 4.0947 41.0254 5.87094 41.2872C6.99278 41.4555 7.44151 41.8668 7.74067 42.9886C8.09592 44.3909 8.45116 44.2975 8.8625 42.6708C9.04948 41.9229 9.25515 41.1937 9.29254 41.0628C9.34863 40.9319 8.97469 40.6515 8.32028 40.3523C6.8619 39.6792 4.61822 39.5483 3.21593 40.0532Z" fill="white"></path><path d="M15.5763 40.0142C14.604 40.3694 13.9122 41.1547 13.6317 42.2018C13.3326 43.2862 13.5196 44.2772 14.2862 45.773L14.9593 47.0818L13.6691 48.2597C11.4255 50.2977 10.8646 52.2048 11.8929 54.2802C13.2391 56.9539 17.5021 57.4027 20.8302 55.2151L21.6903 54.6355L22.7373 55.589C23.3169 56.1126 23.8591 56.5426 23.9713 56.5426C24.177 56.5426 26.1589 55.0281 26.1589 54.8598C26.1776 54.8038 25.8971 54.5794 25.5606 54.3363C25.2427 54.112 24.607 53.6071 24.177 53.2145L23.3917 52.5227L23.9713 51.5878C24.2892 51.0643 24.7192 50.2416 24.9249 49.7181L25.2801 48.7832L24.6631 48.2784C23.9526 47.6801 23.747 47.624 23.747 48.0727C23.747 48.4467 22.4382 51.3074 22.2699 51.3074C21.9333 51.3074 18.5117 47.3622 18.5117 46.9883C18.5117 46.9135 18.9418 46.4274 19.4653 45.9412C19.9888 45.4551 20.5684 44.7446 20.7741 44.352C21.5033 42.9123 21.0733 41.1734 19.7831 40.332C18.867 39.715 16.7916 39.5654 15.5763 40.0142ZM18.8296 41.6221C19.6897 42.5757 19.484 43.7723 18.2687 44.9316C17.7077 45.4551 17.5395 45.5299 17.3151 45.3429C16.8477 44.9503 16.2681 43.5667 16.2681 42.8188C16.2681 41.4352 17.9321 40.6499 18.8296 41.6221ZM16.7729 49.3067C17.0907 49.7368 18.0443 50.8399 18.867 51.7561C19.7084 52.691 20.3815 53.4949 20.3815 53.5884C20.3815 53.6632 20.0449 53.9624 19.6336 54.2241C18.6987 54.8411 16.8103 55.0468 15.9689 54.6168C14.3983 53.7941 13.9309 52.1674 14.7349 50.1668C14.9406 49.6433 15.8567 48.5028 16.0437 48.5028C16.1185 48.5028 16.4363 48.8767 16.7729 49.3067Z" fill="white"></path><path d="M33.3193 40.0146C29.3554 41.0804 26.5696 45.5303 27.2614 49.7185C28.0092 54.2993 31.8048 57.0665 36.5726 56.5243C38.3114 56.3373 39.265 56.0382 40.3868 55.3277C41.1721 54.8416 41.1721 54.8229 41.0412 53.9628C40.9664 53.4767 40.8917 53.0466 40.8543 53.0092C40.8169 52.9718 40.4055 53.2523 39.9381 53.6449C37.6757 55.4773 34.6281 55.5708 32.5714 53.8319C30.3651 51.9809 29.5985 47.1944 31.0195 44.2963C31.9731 42.3892 33.7119 41.2112 35.619 41.2112C36.6474 41.2112 38.1432 41.7722 38.8537 42.4266C39.4333 42.9501 39.5455 43.1932 39.6389 44.0345C39.7137 44.7824 39.8072 45.0629 40.0503 45.1003C40.2933 45.1377 40.4616 44.8011 40.8543 43.5297L41.3591 41.8843L40.9104 41.5478C38.9097 39.9585 35.8247 39.3228 33.3193 40.0146Z" fill="white"></path><path d="M118.822 40.0905C117.008 40.5019 116.111 42.4464 117.046 43.9609C118.074 45.6436 120.822 45.5688 121.739 43.83C122.823 41.8107 121.065 39.567 118.822 40.0905ZM120.486 41.0254C121.682 42.4464 121.047 44.7649 119.457 44.7649C118.261 44.7649 117.363 43.1569 117.775 41.7359C118.186 40.3897 119.626 40.0157 120.486 41.0254Z" fill="white"></path><path d="M66.301 40.5563C66.2075 40.949 66.114 41.005 65.8336 40.8555C65.5157 40.6685 65.4783 40.7807 65.3661 42.0147C65.254 43.1178 65.067 43.6788 64.3004 45.1371C63.7956 46.1094 63.5151 46.7451 63.6647 46.5394C63.833 46.3338 64.1695 45.9411 64.4313 45.6607C65.1231 44.9128 66.8058 40.4628 66.5067 40.1637C66.4506 40.1076 66.3758 40.2945 66.301 40.5563Z" fill="white"></path><path d="M78.7173 42.6145V45.1387H79.1847H79.6521V42.6145V40.0904H79.1847H78.7173V42.6145Z" fill="white"></path><path d="M80.7729 42.6145C80.7729 44.7086 80.829 45.1387 81.0534 45.1387C81.2591 45.1387 81.3339 44.7647 81.3713 43.2502L81.4274 41.3618L82.8296 43.2502C84.0076 44.8208 84.3254 45.12 84.7555 45.1387H85.2603V42.6145C85.2603 40.5204 85.2042 40.0904 84.9798 40.0904C84.7742 40.0904 84.6994 40.4643 84.662 41.9975L84.6059 43.9047L83.2036 42.0162C82.0257 40.4083 81.7265 40.1091 81.2965 40.0904H80.7729V42.6145Z" fill="white"></path><path d="M85.9336 40.3896C85.8401 40.6326 85.9523 40.67 86.6628 40.5765L87.5042 40.4456V42.8015V45.1387H88.0277H88.5699L88.4764 43.2876C88.439 42.2593 88.439 41.2122 88.5138 40.9505C88.626 40.5017 88.6821 40.4643 89.3739 40.5765C89.9909 40.67 90.1218 40.6513 90.1218 40.3896C90.1218 39.9408 86.1019 39.9408 85.9336 40.3896Z" fill="white"></path><path d="M90.7573 42.6145V45.1387H92.4962C93.9172 45.1387 94.235 45.0826 94.235 44.8582C94.235 44.6338 93.9733 44.5778 93.0197 44.5778H91.8044V43.6429V42.708H92.8327C93.5245 42.708 93.8611 42.6332 93.8611 42.465C93.8611 42.3154 93.5619 42.2593 92.8327 42.2967L91.8044 42.3715V41.5301C91.8044 40.5391 92.0287 40.3896 93.2441 40.5765C93.9172 40.67 94.048 40.6326 94.048 40.3896C94.048 40.1465 93.7863 40.0904 92.4027 40.0904H90.7573V42.6145Z" fill="white"></path><path d="M94.9834 42.6145V45.1387H95.5443H96.1052V42.8015C96.1052 40.8009 96.1426 40.4643 96.4044 40.4643C97.4514 40.4643 97.8067 41.6423 96.9279 42.278L96.4418 42.6332L97.1336 43.886C97.7506 44.9891 97.8815 45.1387 98.3676 45.1387H98.9285L98.4237 44.2412C98.1432 43.7551 97.8067 43.2129 97.6758 43.0259C97.4888 42.7454 97.5449 42.5958 97.9937 42.1471C99.1716 40.9692 98.405 40.0904 96.2174 40.0904H94.9834V42.6145Z" fill="white"></path><path d="M99.4688 42.6145C99.4688 44.7086 99.5248 45.1387 99.7492 45.1387C99.9549 45.1387 100.03 44.7647 100.067 43.2129L100.123 41.3057L101.525 43.2129C102.703 44.8021 103.021 45.12 103.451 45.12L103.956 45.1387V42.6145C103.956 40.5204 103.9 40.0904 103.676 40.0904C103.47 40.0904 103.395 40.4643 103.358 41.9975L103.302 43.886L101.899 41.9975C100.721 40.3709 100.422 40.0904 99.9923 40.0904H99.4688V42.6145Z" fill="white"></path><path d="M105.92 41.904C105.527 42.9137 105.06 44.0542 104.854 44.4282C104.517 45.12 104.517 45.1387 104.854 45.1387C105.097 45.1387 105.284 44.8582 105.527 44.2038L105.864 43.2689H106.836H107.808L108.145 44.2038C108.444 45.0452 108.537 45.1387 109.042 45.1387C109.341 45.1387 109.566 45.0639 109.528 44.9891C109.51 44.8956 109.061 43.7738 108.537 42.465C107.677 40.2961 107.565 40.1091 107.116 40.0904C106.686 40.0904 106.574 40.2587 105.92 41.904ZM107.49 42.6519C107.509 42.8015 107.266 42.895 106.855 42.895C106.088 42.895 106.032 42.6893 106.518 41.661L106.855 40.9879L107.172 41.7171C107.341 42.1097 107.49 42.5397 107.49 42.6519Z" fill="white"></path><path d="M109.885 40.2213C109.568 40.5204 109.811 40.67 110.559 40.6139L111.344 40.5578L111.4 42.8389L111.456 45.1387H111.961H112.466V42.8576V40.5578L113.27 40.6139C113.887 40.67 114.055 40.6139 114.055 40.3896C114.055 40.1278 113.756 40.0904 112.036 40.0904C110.914 40.0904 109.942 40.1465 109.885 40.2213Z" fill="white"></path><path d="M114.803 42.6145V45.1387H115.27H115.738V42.6145V40.0904H115.27H114.803V42.6145Z" fill="white"></path><path d="M123.03 42.6145C123.03 44.7086 123.086 45.1387 123.311 45.1387C123.535 45.1387 123.554 44.8208 123.46 43.2129C123.329 40.9505 123.311 40.9318 125.199 43.4746C126.209 44.8208 126.545 45.1387 126.938 45.1387H127.424V42.6145C127.424 40.5017 127.387 40.0904 127.144 40.0904C126.901 40.0904 126.882 40.3896 126.919 41.9788C126.975 43.2876 126.938 43.8299 126.788 43.7551C126.676 43.6803 125.984 42.8389 125.255 41.8666C124.227 40.483 123.816 40.0904 123.479 40.0904H123.03V42.6145Z" fill="white"></path><path d="M129.107 42.465C128.602 43.7738 128.153 44.8956 128.116 44.9891C128.078 45.0639 128.172 45.1387 128.321 45.1387C128.471 45.1387 128.77 44.7086 128.976 44.2038L129.368 43.2689H130.285H131.201L131.593 44.2038C131.93 45.0265 132.042 45.1387 132.528 45.1387H133.089L132.042 42.6145C131.07 40.3148 130.939 40.0904 130.509 40.0904C130.079 40.1091 129.948 40.3148 129.107 42.465ZM130.733 41.9414C130.902 42.3528 130.976 42.7267 130.92 42.7828C130.752 42.9698 129.574 42.9137 129.574 42.708C129.574 42.4276 130.191 41.2122 130.322 41.2122C130.397 41.2122 130.584 41.5488 130.733 41.9414Z" fill="white"></path><path d="M133.687 42.6134V45.1562L135.407 45.1002C136.566 45.0628 137.146 44.9693 137.202 44.801C137.258 44.6327 136.921 44.5766 135.93 44.5766H134.584L134.659 42.333L134.715 40.0893H134.21H133.687V42.6134Z" fill="white"></path><path d="M140.321 42.6145V45.1387H140.826C141.35 45.1387 141.35 45.12 141.35 43.9233V42.708H142.565H143.78V43.9233V45.1387H144.341H144.902V42.6145V40.0904H144.341H143.78V41.2122V42.3341H142.565H141.35V41.2122C141.35 40.1091 141.331 40.0904 140.826 40.0904H140.321V42.6145Z" fill="white"></path><path d="M146.701 40.6513C145.934 41.3244 145.579 42.278 145.766 43.1194C146.046 44.4656 146.925 45.1387 148.365 45.1387C150.01 45.1387 151.076 44.1103 151.076 42.5584C151.076 40.9692 150.122 40.0904 148.383 40.0904C147.505 40.0904 147.262 40.1652 146.701 40.6513ZM149.337 40.7448C150.234 41.3805 150.365 43.4559 149.561 44.316C148.832 45.1013 147.579 44.8582 147.056 43.8299C146.532 42.8202 146.85 40.8757 147.561 40.5952C148.047 40.3896 148.944 40.4643 149.337 40.7448Z" fill="white"></path><path d="M152.008 42.5958V45.1387H153.672C155.018 45.1387 155.355 45.0826 155.448 44.8395C155.542 44.5965 155.411 44.5591 154.756 44.5778C154.326 44.5965 153.728 44.5965 153.448 44.5965L152.924 44.5778L152.961 42.3715L152.999 40.1839L152.494 40.1278L152.008 40.0717V42.5958Z" fill="white"></path><path d="M156.123 42.6145V45.1387H157.488C158.984 45.1387 159.881 44.8021 160.48 43.9981C160.984 43.2876 161.078 42.1845 160.666 41.3992C160.18 40.4457 159.32 40.0904 157.581 40.0904H156.123V42.6145ZM158.797 40.67C159.788 41.1748 160.18 42.5584 159.657 43.7177C159.414 44.2412 158.46 44.7647 157.731 44.7647H157.245V42.6145V40.4643H157.824C158.142 40.4643 158.572 40.5578 158.797 40.67Z" fill="white"></path><path d="M161.826 42.6145V45.1387H162.35H162.855V42.6145V40.0904H162.35H161.826V42.6145Z" fill="white"></path><path d="M163.976 42.6145C163.976 44.7834 164.013 45.1387 164.275 45.1387C164.518 45.1387 164.555 44.8582 164.518 43.3624C164.499 42.3715 164.518 41.5488 164.555 41.4927C164.593 41.4553 165.266 42.2593 166.032 43.2876C167.154 44.7647 167.528 45.1387 167.902 45.1387H168.369V42.6145C168.369 40.7261 168.313 40.0904 168.145 40.0904C167.958 40.0904 167.902 40.5952 167.902 41.9788C167.902 43.0072 167.827 43.8112 167.734 43.7551C167.64 43.699 166.967 42.8576 166.238 41.8666C165.172 40.483 164.798 40.0904 164.424 40.0904H163.976V42.6145Z" fill="white"></path><path d="M170.143 40.8002C168.89 42.0529 168.984 43.8104 170.33 44.7266C170.891 45.1005 171.171 45.1566 172.218 45.1005C173.789 45.0258 174.069 44.8014 174.069 43.6235C174.069 43.1186 173.994 42.7073 173.901 42.7073C173.359 42.7073 173.134 42.9691 173.134 43.6235C173.134 44.4835 172.873 44.764 172.069 44.764C170.236 44.764 169.563 41.5481 171.208 40.6693C172.069 40.2206 173.508 40.6319 173.508 41.3237C173.508 41.7163 173.807 41.492 173.938 41.0245C174.069 40.4823 173.228 40.0897 171.9 40.0897C170.928 40.0897 170.797 40.1458 170.143 40.8002Z" fill="white"></path><path d="M48.4058 42.39C46.4426 42.9509 44.8346 44.3158 43.881 46.2416C43.3201 47.4009 43.2827 47.5878 43.2827 49.551C43.2827 51.5517 43.3014 51.6638 43.9371 52.8979C44.7224 54.431 45.9751 55.5529 47.6205 56.1699C48.5179 56.5064 48.9854 56.5625 50.2942 56.5064C51.6591 56.4503 52.0517 56.3382 53.0614 55.7959C54.6506 54.9546 55.7538 53.6645 56.3895 51.9256C56.8195 50.729 56.8756 50.3737 56.8008 48.8405C56.7073 46.6904 56.1277 45.3629 54.6319 44.0166C53.024 42.5396 50.369 41.8478 48.4058 42.39ZM51.3225 43.998C53.1175 44.8019 53.9402 46.5782 53.9402 49.6258C53.9402 51.2712 53.8654 51.7386 53.5101 52.5239C52.7061 54.2628 51.6591 55.0481 50.1072 55.0481C48.8545 55.0481 48.0692 54.6928 47.34 53.814C46.536 52.8418 46.1621 51.7012 46.0499 49.7941C45.8255 46.1855 47.3961 43.7362 50.0137 43.6614C50.3316 43.6614 50.9112 43.811 51.3225 43.998Z" fill="white"></path><path d="M60.5803 51.6822C60.0754 52.3179 59.9446 52.3926 59.608 52.2244C59.4023 52.1122 59.2154 52.0561 59.1967 52.0935C59.178 52.1309 58.9162 52.6357 58.6358 53.234C58.2618 54.0193 57.7944 54.5802 56.9717 55.272C55.3637 56.5808 55.3076 56.6743 56.3734 56.076C57.5513 55.4216 58.4488 54.5802 59.8885 52.804C61.3282 51.009 61.4029 50.9343 61.2721 50.9343C61.216 50.9343 60.8981 51.2708 60.5803 51.6822Z" fill="white"></path><path d="M48.3321 60.8441C47.8273 61.2367 46.8924 61.7228 46.2754 61.9285C45.6584 62.1529 45.3031 62.3211 45.4714 62.3398C45.8267 62.3398 48.2386 61.4237 49.323 60.8628C49.9401 60.5449 49.9588 60.5075 49.6222 60.3392C49.3417 60.171 49.08 60.2831 48.3321 60.8441Z" fill="white"></path><path d="M36.4214 63.9661C36.5523 64.0222 36.7206 64.0035 36.7767 63.9474C36.8515 63.8913 36.7393 63.8353 36.5336 63.8539C36.3279 63.8539 36.2718 63.91 36.4214 63.9661Z" fill="white"></path><style>@media (prefers-color-scheme: light) { :root { filter: contrast(1) brightness(0.1); } }
@media (prefers-color-scheme: dark) { :root { filter: contrast(1) brightness(1); } }
</style></svg>