<svg preserveAspectRatio="none" width="100%" height="100%" overflow="visible" style="display: block;" viewBox="0 0 15.9806 15.368" fill="none" xmlns="http://www.w3.org/2000/svg">
<g id="call-calling">
<path id="Vector" d="M15.4535 12.2315C15.4535 12.4901 15.3936 12.7559 15.2663 13.0146C15.139 13.2732 14.9742 13.5174 14.7571 13.7473C14.3902 14.1353 13.9858 14.4155 13.5291 14.5951C13.0798 14.7747 12.5931 14.868 12.0689 14.868C11.3051 14.868 10.4889 14.6956 9.62782 14.3436C8.76671 13.9916 7.90559 13.5174 7.05197 12.9212C6.19085 12.3177 5.37466 11.6496 4.59591 10.9096C3.82465 10.1625 3.12827 9.37945 2.50677 8.56047C1.89276 7.7415 1.39856 6.92252 1.03913 6.11072C0.679711 5.29174 0.5 4.50868 0.5 3.76155C0.5 3.27303 0.589855 2.80607 0.769567 2.37503C0.949278 1.9368 1.23382 1.5345 1.63068 1.1753C2.10991 0.722705 2.63407 0.5 3.18818 0.5C3.39784 0.5 3.6075 0.543104 3.7947 0.629312C3.98939 0.715521 4.16161 0.844833 4.2964 1.03162L6.0336 3.38079C6.16839 3.56039 6.26573 3.72563 6.33312 3.88367C6.40051 4.03454 6.43795 4.1854 6.43795 4.3219C6.43795 4.49432 6.38554 4.66673 6.28071 4.83197C6.18336 4.9972 6.04109 5.16961 5.86138 5.34203L5.29229 5.90957C5.20993 5.98859 5.17249 6.08199 5.17249 6.19693C5.17249 6.2544 5.17998 6.30469 5.19495 6.36216C5.21742 6.41963 5.23988 6.46274 5.25486 6.50584C5.38964 6.74292 5.62177 7.05183 5.95124 7.4254C6.28819 7.79897 6.64762 8.17972 7.03699 8.56047C7.44134 8.94123 7.83071 9.29324 8.22758 9.61652C8.61695 9.93262 8.93893 10.1481 9.19352 10.2775C9.23096 10.2918 9.27589 10.3134 9.32831 10.3349C9.38821 10.3565 9.44811 10.3637 9.51551 10.3637C9.6428 10.3637 9.74014 10.3206 9.82251 10.2415L10.3916 9.70273C10.5788 9.52313 10.7585 9.38664 10.9307 9.30043C11.103 9.19985 11.2752 9.14956 11.4624 9.14956C11.6046 9.14956 11.7544 9.1783 11.9191 9.24296C12.0839 9.30761 12.2561 9.401 12.4433 9.52313L14.9218 11.2114C15.1165 11.3407 15.2513 11.4916 15.3337 11.6712C15.4085 11.8508 15.4535 12.0304 15.4535 12.2315Z" stroke="var(--stroke-0, white)" stroke-opacity="0.8" stroke-miterlimit="10"/>
<path id="Vector_2" d="M12.8598 5.52906C12.8598 5.09801 12.5079 4.43708 11.9837 3.89828C11.5045 3.40259 10.868 3.01465 10.239 3.01465" stroke="var(--stroke-0, white)" stroke-opacity="0.8" stroke-linecap="round" stroke-linejoin="round"/>
<path id="Vector_3" d="M15.4806 5.52881C15.4806 2.7486 13.1369 0.5 10.239 0.5" stroke="var(--stroke-0, white)" stroke-opacity="0.8" stroke-linecap="round" stroke-linejoin="round"/>
</g>
</svg>
