<svg preserveAspectRatio="none" width="100%" height="100%" overflow="visible" style="display: block;" viewBox="0 0 20 20" fill="none" xmlns="http://www.w3.org/2000/svg">
<g id="eva:diagonal-arrow-right-up-outline">
<path id="Vector" d="M15.0048 5.87402C15.0048 5.65301 14.917 5.44105 14.7608 5.28477C14.6045 5.12849 14.3925 5.04069 14.1715 5.04069L7.50483 4.99902C7.28382 4.99902 7.07186 5.08682 6.91558 5.2431C6.7593 5.39938 6.6715 5.61134 6.6715 5.83236C6.6715 6.05337 6.7593 6.26533 6.91558 6.42161C7.07186 6.57789 7.28382 6.66569 7.50483 6.66569H12.1382L5.2465 13.574C5.16839 13.6515 5.1064 13.7437 5.06409 13.8452C5.02178 13.9468 5 14.0557 5 14.1657C5 14.2757 5.02178 14.3846 5.06409 14.4862C5.1064 14.5877 5.16839 14.6799 5.2465 14.7574C5.32397 14.8355 5.41614 14.8975 5.51768 14.9398C5.61923 14.9821 5.72816 15.0039 5.83817 15.0039C5.94818 15.0039 6.0571 14.9821 6.15865 14.9398C6.2602 14.8975 6.35236 14.8355 6.42983 14.7574L13.3382 7.84902V12.499C13.3382 12.72 13.426 12.932 13.5822 13.0883C13.7385 13.2446 13.9505 13.3324 14.1715 13.3324C14.3925 13.3324 14.6045 13.2446 14.7608 13.0883C14.917 12.932 15.0048 12.72 15.0048 12.499V5.87402Z" fill="var(--fill-0, white)"/>
</g>
</svg>
