<svg preserveAspectRatio="none" width="100%" height="100%" overflow="visible" style="display: block;" viewBox="0 0 16 16" fill="none" xmlns="http://www.w3.org/2000/svg">
<g id="basil:instagram-solid" clip-path="url(#clip0_0_87)">
<path id="Vector" d="M8.00022 5.11133C7.23404 5.11133 6.49924 5.41569 5.95746 5.95746C5.41569 6.49924 5.11133 7.23404 5.11133 8.00022C5.11133 8.7664 5.41569 9.5012 5.95746 10.043C6.49924 10.5847 7.23404 10.8891 8.00022 10.8891C8.7664 10.8891 9.5012 10.5847 10.043 10.043C10.5847 9.5012 10.8891 8.7664 10.8891 8.00022C10.8891 7.23404 10.5847 6.49924 10.043 5.95746C9.5012 5.41569 8.7664 5.11133 8.00022 5.11133Z" fill="var(--fill-0, white)"/>
<path id="Vector_2" fill-rule="evenodd" clip-rule="evenodd" d="M3.35187 0.0731202C6.44168 -0.269165 9.55984 -0.269165 12.6496 0.0731202C14.3376 0.261565 15.6985 1.59045 15.8968 3.28468C16.2629 6.41772 16.2629 9.58275 15.8968 12.7158C15.6985 14.41 14.3376 15.7389 12.6505 15.9282C9.56043 16.2706 6.44197 16.2706 3.35187 15.9282C1.66387 15.7389 0.302979 14.41 0.104757 12.7167C-0.261481 9.58334 -0.261481 6.41801 0.104757 3.28468C0.302979 1.59045 1.66387 0.261565 3.35187 0.0731202ZM12.4452 2.6669C12.2095 2.6669 11.9834 2.76055 11.8167 2.92725C11.65 3.09395 11.5563 3.32004 11.5563 3.55579C11.5563 3.79154 11.65 4.01763 11.8167 4.18433C11.9834 4.35103 12.2095 4.44468 12.4452 4.44468C12.6809 4.44468 12.907 4.35103 13.0737 4.18433C13.2404 4.01763 13.3341 3.79154 13.3341 3.55579C13.3341 3.32004 13.2404 3.09395 13.0737 2.92725C12.907 2.76055 12.6809 2.6669 12.4452 2.6669ZM3.77853 8.00023C3.77853 6.88043 4.22337 5.80649 5.01519 5.01467C5.80702 4.22285 6.88095 3.77801 8.00076 3.77801C9.12056 3.77801 10.1945 4.22285 10.9863 5.01467C11.7781 5.80649 12.223 6.88043 12.223 8.00023C12.223 9.12003 11.7781 10.194 10.9863 10.9858C10.1945 11.7776 9.12056 12.2225 8.00076 12.2225C6.88095 12.2225 5.80702 11.7776 5.01519 10.9858C4.22337 10.194 3.77853 9.12003 3.77853 8.00023Z" fill="var(--fill-0, white)"/>
</g>
<defs>
<clipPath id="clip0_0_87">
<rect width="16" height="16" fill="white"/>
</clipPath>
</defs>
</svg>
