<svg preserveAspectRatio="none" width="100%" height="100%" overflow="visible" style="display: block;" viewBox="0 0 22.5 22.5" fill="none" xmlns="http://www.w3.org/2000/svg">
<g id="Group">
<path id="Vector" d="M22.125 15H16.5V11.625C16.5 11.5256 16.4605 11.4302 16.3902 11.3598L13.3902 8.35984C13.2437 8.2134 13.0063 8.2134 12.8598 8.35984L11.25 9.96966L9.64018 8.35984C9.4937 8.2134 9.2563 8.2134 9.10982 8.35984L8.24542 9.22424C8.19715 8.39665 7.75461 7.64112 7.07666 7.18842C7.34761 6.8584 7.5 6.44188 7.5 6C7.5 5.72286 7.43964 5.45348 7.32406 5.2063L8.89018 3.64016C9.03662 3.49372 9.03662 3.25628 8.89018 3.10984L5.89018 0.10984C5.81982 0.039505 5.72447 0 5.625 0H0.375C0.167908 0 0 0.167885 0 0.375V3.75C0 3.95712 0.167908 4.125 0.375 4.125H2.09468L3.76265 5.79299C3.75509 5.86154 3.75 5.9305 3.75 6C3.75 6.44188 3.90239 6.8584 4.17334 7.18842C3.45442 7.66848 3 8.48904 3 9.375C3 10.3948 3.59276 11.3169 4.5 11.7474V12.75C4.5 12.9571 4.66791 13.125 4.875 13.125H6V15H4.125H0.375C0.167908 15 0 15.1679 0 15.375V16.875C0 17.0821 0.167908 17.25 0.375 17.25H4.125H7.5V19.125C7.5 19.2244 7.53951 19.3198 7.60982 19.3902L10.6098 22.3902C10.6802 22.4605 10.7755 22.5 10.875 22.5H16.125C16.3321 22.5 16.5 22.3321 16.5 22.125V19.125C16.5 18.9179 16.3321 18.75 16.125 18.75H14.7803L13.2803 17.25H22.125C22.3321 17.25 22.5 17.0821 22.5 16.875V15.375C22.5 15.1679 22.3321 15 22.125 15ZM3.75 16.5H0.75V15.75H3.75V16.5ZM13.125 9.15532L15.75 11.7803V15H14.625V11.625C14.625 11.4179 14.4571 11.25 14.25 11.25H12C11.7929 11.25 11.625 11.4179 11.625 11.625V15H10.5V11.7803L13.125 9.15532ZM13.875 15H12.375V12H13.875V15ZM9.375 9.15534L10.7197 10.5L9.96966 11.25H7.28032L9.375 9.15534ZM2.25 3.375H0.75V0.75H5.46968L8.09468 3.375L6.87053 4.59916C6.69476 4.44322 6.49065 4.32048 6.26981 4.23948L6.15532 4.125L6.64018 3.64016C6.78662 3.49372 6.78662 3.25628 6.64018 3.10984L5.51518 1.98484C5.3687 1.8384 5.1313 1.8384 4.98482 1.98484L3.85982 3.10984C3.71338 3.25628 3.71338 3.49372 3.85982 3.64016L4.63031 4.41066C4.38943 4.56121 4.18612 4.76449 4.03561 5.00527L2.51518 3.48484C2.44482 3.41451 2.34947 3.375 2.25 3.375ZM5.35982 3.85984C5.32068 3.899 5.29198 3.94471 5.27376 3.99342L4.65532 3.375L5.25 2.78032L5.84468 3.375L5.35982 3.85984ZM5.25 12.375V11.497C5.25 11.3381 5.14984 11.1964 5.00002 11.1435C4.25235 10.8791 3.75 10.1684 3.75 9.375C3.75 8.60033 4.23628 7.89562 4.96005 7.62147C5.09308 7.57107 5.18614 7.44976 5.20033 7.30822C5.21452 7.1667 5.14746 7.0293 5.02711 6.9535C4.69707 6.74556 4.5 6.38912 4.5 6C4.5 5.88693 4.51662 5.77574 4.54958 5.66892C4.65903 5.3123 4.9373 5.03405 5.29449 4.92442C5.50699 4.85882 5.74255 4.85866 5.95596 4.92458C6.19482 4.99796 6.40558 5.15181 6.54895 5.35714C6.68047 5.5464 6.75 5.76869 6.75 6C6.75 6.38912 6.55293 6.74556 6.22289 6.9535C6.10254 7.0293 6.03548 7.1667 6.04967 7.30822C6.06386 7.44976 6.15692 7.57107 6.28995 7.62147C7.01372 7.89562 7.5 8.60033 7.5 9.375C7.5 9.63786 7.44629 9.89074 7.34165 10.128L6.10982 11.3598C6.03811 11.4316 6.00093 11.5275 6.0009 11.625H6V12.375H5.25ZM6.75 12H9.75V15H6.75V12ZM14.625 19.5H15.75V21.75H11.0303L8.25 18.9697V17.25H9V18.375C9 18.4744 9.03951 18.5698 9.10982 18.6402L10.9848 20.5152C11.1313 20.6616 11.3687 20.6616 11.5152 20.5152L12.6402 19.3902C12.7866 19.2437 12.7866 19.0063 12.6402 18.8598L11.7803 18L12.375 17.4053L14.3598 19.3902C14.4302 19.4605 14.5255 19.5 14.625 19.5ZM10.9848 18.2652L11.8447 19.125L11.25 19.7197L9.75 18.2197V17.25H11.4697L10.9848 17.7348C10.8384 17.8813 10.8384 18.1187 10.9848 18.2652ZM21.75 16.5H4.5V15.75H21.75V16.5Z" fill="var(--fill-0, #F24822)"/>
<path id="Vector_2" d="M22.125 0H16.875C16.7755 0 16.6802 0.039505 16.6098 0.10984L14.3598 2.35984C14.2895 2.43015 14.25 2.52555 14.25 2.625V4.5H13.875C13.7755 4.5 13.6802 4.53951 13.6098 4.60984L10.6098 7.60984C10.5026 7.71709 10.4705 7.87839 10.5286 8.01851C10.5866 8.15863 10.7233 8.25 10.875 8.25H14.625C14.7245 8.25 14.8198 8.21049 14.8902 8.14016L17.625 5.40534L20.3598 8.14016L20.8902 7.60984L18.9053 5.625L20.4053 4.125H22.125C22.3321 4.125 22.5 3.95712 22.5 3.75V0.375C22.5 0.167885 22.3321 0 22.125 0ZM14.4697 7.5H11.7803L14.0303 5.25H16.7197L14.4697 7.5ZM16.9848 4.23484C16.9145 4.30515 16.875 4.40055 16.875 4.5H16.5V3.53032L17.25 2.78032L17.8447 3.375L16.9848 4.23484ZM21.75 3.375H20.25C20.1505 3.375 20.0552 3.41451 19.9848 3.48484L18.375 5.09466L17.8902 4.60984L17.8895 4.61049C17.8516 4.57257 17.8061 4.54336 17.7558 4.52456L18.6402 3.64016C18.7866 3.49372 18.7866 3.25628 18.6402 3.10984L17.5152 1.98484C17.3687 1.8384 17.1313 1.8384 16.9848 1.98484L15.8598 3.10984C15.7895 3.18015 15.75 3.27555 15.75 3.375V4.5H15V2.78034L17.0303 0.75H21.75V3.375Z" fill="var(--fill-0, #F24822)"/>
</g>
</svg>
