<svg preserveAspectRatio="none" width="100%" height="100%" overflow="visible" style="display: block;" viewBox="0 0 24 23.9231" fill="none" xmlns="http://www.w3.org/2000/svg">
<g id="Group">
<path id="Vector" d="M23.7826 11.2522C23.651 11.1977 23.4995 11.2278 23.3987 11.3285L22.3437 12.3836V5.21021C22.3437 5.01564 22.1859 4.85795 21.9914 4.85795H19.2848L20.2673 3.87545C20.2674 3.8753 20.2676 3.87512 20.2677 3.87498L21.2144 2.92829C21.4172 2.72546 21.5289 2.45565 21.5289 2.16877C21.5289 1.88189 21.4172 1.61218 21.2144 1.40925L20.1197 0.314532C19.9169 0.111703 19.647 0 19.3602 0C19.0733 0 18.8035 0.111703 18.6006 0.314532L17.6535 1.26169L16.509 2.40619L14.0573 4.8579H3.12282V1.37297C3.12282 1.17839 2.96508 1.02071 2.77055 1.02071C1.24289 1.0208 0 2.2636 0 3.79135V18.7532C0 18.7792 0.00300001 18.8046 0.00834377 18.8289C0.0570001 19.4772 0.337454 20.0795 0.806158 20.5367C1.30716 21.0253 1.96852 21.2944 2.66846 21.2944H13.4328L11.4055 23.3217C11.3047 23.4225 11.2746 23.574 11.3291 23.7056C11.3836 23.8373 11.5121 23.9231 11.6546 23.9231H23.6478C23.8423 23.9231 24 23.7654 24 23.5708V11.5777C24 11.4352 23.9142 11.3067 23.7826 11.2522ZM19.0989 0.812767C19.2429 0.668673 19.4775 0.668673 19.6215 0.812767L20.7163 1.90754C20.8604 2.05158 20.8604 2.2861 20.7163 2.43019L20.0183 3.12826L18.4008 1.51083L19.0989 0.812767ZM17.9026 2.00902L19.5201 3.6264L18.8737 4.27276L17.2564 2.65538L17.9026 2.00902ZM23.2956 15.5359H22.6457C22.4511 15.5359 22.2934 15.6936 22.2934 15.8882C22.2934 16.0828 22.4511 16.2404 22.6457 16.2404H23.2956V17.302H22.6457C22.4511 17.302 22.2934 17.4597 22.2934 17.6542C22.2934 17.8488 22.4511 18.0065 22.6457 18.0065H23.2956V19.068H22.6457C22.4511 19.068 22.2934 19.2257 22.2934 19.4203C22.2934 19.6148 22.4511 19.7725 22.6457 19.7725H23.2956V20.8341H22.6457C22.4511 20.8341 22.2934 20.9918 22.2934 21.1863C22.2934 21.3809 22.4511 21.5386 22.6457 21.5386H23.2956V23.2187H12.505L16.0632 19.6605C16.2007 19.5229 16.2007 19.2999 16.0632 19.1624C16.0474 19.1466 16.0304 19.1329 16.0126 19.1207C15.8755 19.0267 15.6867 19.0406 15.5649 19.1624L14.1373 20.59H2.66851C1.60013 20.59 0.740064 19.7559 0.70622 18.6894C0.708236 18.6225 0.713439 18.5561 0.721783 18.4905C0.72183 18.4901 0.721876 18.4897 0.721923 18.4894C0.725861 18.4582 0.730595 18.4272 0.735986 18.3963C0.736595 18.3928 0.737251 18.3893 0.737861 18.3858C0.742783 18.3583 0.748314 18.3309 0.754361 18.3036C0.756048 18.296 0.75783 18.2884 0.759611 18.2809C0.764955 18.2578 0.77072 18.2349 0.776908 18.2121C0.780283 18.1997 0.783798 18.1874 0.787408 18.1751C0.792564 18.1572 0.797908 18.1393 0.80358 18.1217C0.809252 18.104 0.815299 18.0865 0.821439 18.069C0.825705 18.0568 0.829924 18.0446 0.834517 18.0324C0.843095 18.0094 0.852189 17.9865 0.861564 17.9639C0.864236 17.9574 0.866861 17.9508 0.869627 17.9443C0.881674 17.9161 0.894189 17.8883 0.907408 17.8609C0.907971 17.8597 0.908486 17.8585 0.909049 17.8573C1.18458 17.2872 1.7145 16.862 2.35046 16.7301C2.35224 16.7298 2.35402 16.7293 2.3558 16.729C2.38496 16.723 2.4144 16.7179 2.44402 16.7132C2.44894 16.7124 2.45386 16.7114 2.45888 16.7106C2.48565 16.7066 2.51269 16.7034 2.53974 16.7003C2.54733 16.6995 2.55488 16.6983 2.56252 16.6976C2.58863 16.6949 2.61497 16.6932 2.64132 16.6916C2.64966 16.691 2.65801 16.6902 2.66635 16.6897C2.70085 16.688 2.73563 16.6871 2.77055 16.6871C2.96508 16.6871 3.12282 16.5294 3.12282 16.3348V13.7807C3.12282 13.5861 2.96508 13.4284 2.77055 13.4284C2.57602 13.4284 2.41829 13.5861 2.41829 13.7807V16.0048C1.82344 16.08 1.2713 16.3453 0.835924 16.7705C0.790127 16.8152 0.74672 16.8617 0.704439 16.9089V3.79135C0.704439 2.77224 1.44628 1.923 2.41824 1.75528V5.21021V12.3716V12.3717C2.41824 12.5662 2.57597 12.724 2.77051 12.724C2.96504 12.724 3.12277 12.5662 3.12277 12.3717V12.3716V5.56248H13.3528L11.4054 7.50986C11.2678 7.64748 11.2678 7.87047 11.4054 8.00805C11.543 8.14558 11.766 8.14558 11.9036 8.00805L14.4523 5.45931C14.4524 5.45921 14.4524 5.45912 14.4525 5.45907L16.7581 3.15352L18.3754 4.77095L18.1857 4.9607C18.1855 4.96084 18.1853 4.96098 18.1852 4.96112L11.0823 12.0641L9.46493 10.4467L10.865 9.04666C11.0026 8.90903 11.0026 8.68605 10.865 8.54847C10.7274 8.41094 10.5044 8.41094 10.3668 8.54847L8.71764 10.1976C8.70883 10.2064 8.70058 10.2158 8.69285 10.2253C8.69027 10.2285 8.68797 10.2319 8.68553 10.2353C8.68056 10.2419 8.67569 10.2485 8.67114 10.2555C8.66856 10.2595 8.66622 10.2636 8.66378 10.2678C8.65989 10.2744 8.65614 10.281 8.65272 10.2878C8.65047 10.2922 8.64845 10.2967 8.64639 10.3013C8.64325 10.3082 8.64035 10.3152 8.63767 10.3222C8.63674 10.3247 8.63552 10.3271 8.63463 10.3295L7.94833 12.2737L7.48042 13.5993C7.47423 13.6169 7.46978 13.6348 7.46645 13.6528H6.29495C6.10042 13.6528 5.94268 13.8105 5.94268 14.0051C5.94268 14.1997 6.10042 14.3574 6.29495 14.3574H16.0503C16.2449 14.3574 16.4026 14.1997 16.4026 14.0051C16.4026 13.8105 16.2449 13.6528 16.0503 13.6528H9.05125L11.1995 12.8945C11.2013 12.8938 11.203 12.8929 11.2048 12.8923C11.2131 12.8892 11.2213 12.8857 11.2294 12.882C11.2327 12.8805 11.2359 12.8791 11.2391 12.8776C11.2475 12.8734 11.2558 12.8687 11.2639 12.8637C11.2666 12.8622 11.2693 12.8607 11.2719 12.8591C11.2804 12.8536 11.2886 12.8477 11.2967 12.8414C11.2987 12.8398 11.3008 12.8385 11.3028 12.8369C11.3126 12.829 11.3222 12.8205 11.3313 12.8114L18.5803 5.56253H21.6391V13.0881L16.6002 18.1271C16.4626 18.2647 16.4626 18.4877 16.6002 18.6253C16.6088 18.6338 16.6177 18.6419 16.627 18.6494C16.6916 18.7021 16.7705 18.7284 16.8493 18.7284C16.9281 18.7284 17.0071 18.7021 17.0716 18.6494C17.0809 18.6419 17.0898 18.6338 17.0984 18.6253C17.0985 18.6251 17.0984 18.6253 17.0985 18.6251L23.2956 12.428V15.5359ZM10.438 12.4161L9.42897 12.7723L8.75669 12.1L9.11289 11.091L10.438 12.4161Z" fill="var(--fill-0, #F24822)"/>
</g>
</svg>
