<svg preserveAspectRatio="none" width="100%" height="100%" overflow="visible" style="display: block;" viewBox="0 0 24 24" fill="none" xmlns="http://www.w3.org/2000/svg">
<g id="fi_12309211" clip-path="url(#clip0_0_225)">
<path id="Vector" d="M23.8556 3.83662C23.8496 3.83062 19.9466 1.125 19.875 1.125H17.625L4.79925 3.75787C4.668 3.7845 4.59038 3.88125 4.587 3.885L2.712 6.135C2.61862 6.24675 2.59875 6.40237 2.66025 6.534C2.72212 6.66562 2.8545 6.75 3 6.75H11.25V7.944C10.8146 8.09925 10.5 8.51175 10.5 9C10.5 9.3495 10.6635 9.6585 10.9144 9.86512L8.75588 11.7154C8.7525 11.7184 8.7525 11.7221 8.7495 11.7251C8.67413 11.7938 8.625 11.8901 8.625 12.0004V13.5004C8.625 13.7074 8.793 13.8754 9 13.8754H14.25C14.457 13.8754 14.625 13.7074 14.625 13.5004V12.0004C14.625 11.8905 14.5759 11.7938 14.5005 11.7251C14.4975 11.7221 14.4975 11.7184 14.4941 11.7154L12.3356 9.86512C12.5865 9.6585 12.75 9.3495 12.75 9C12.75 8.51175 12.4354 8.09925 12 7.944V6.75H16.875V19.875H15.75C15.543 19.875 15.375 20.043 15.375 20.25V21.375H13.875V15.375C13.875 15.168 13.707 15 13.5 15H7.875V8.625C7.875 8.418 7.707 8.25 7.5 8.25H6C5.793 8.25 5.625 8.418 5.625 8.625V12.375H4.5V8.625C4.5 8.418 4.332 8.25 4.125 8.25H2.625C2.418 8.25 2.25 8.418 2.25 8.625V12.375H1.5C1.293 12.375 1.125 12.543 1.125 12.75V21.375H0.375C0.168 21.375 0 21.543 0 21.75V23.625C0 23.832 0.168 24 0.375 24H23.625C23.832 24 24 23.832 24 23.625V21.75C24 21.543 23.832 21.375 23.625 21.375H21.375V20.25C21.375 20.043 21.207 19.875 21 19.875H20.25V6.654L21.375 6.3165V7.875C21.375 8.082 21.543 8.25 21.75 8.25H23.625C23.832 8.25 24 8.082 24 7.875V4.125C24 4.0065 23.9415 3.90525 23.8556 3.83662ZM11.625 8.625C11.8316 8.625 12 8.79338 12 9C12 9.20662 11.832 9.375 11.6254 9.375C11.4187 9.375 11.2504 9.20662 11.2504 9C11.2504 8.79338 11.4184 8.625 11.625 8.625ZM11.625 10.2439L13.2364 11.625H10.0136L11.625 10.2439ZM13.875 13.125H9.375V12.375H13.875V13.125ZM20.25 5.871V4.5H23.25V4.971L20.25 5.871ZM16.5 6V4.5H19.5V6H16.5ZM11.3006 6L12.375 4.71075L13.4494 6H11.3006ZM8.556 3.75L16.8878 2.03475L15.9075 3.75H8.556ZM15.3244 4.5L14.25 5.78925L13.1756 4.5H15.3244ZM11.5744 4.5L10.5 5.78925L9.42563 4.5H11.5744ZM7.82437 4.5L6.75 5.78925L5.67563 4.5H7.82437ZM8.625 4.71075L9.69937 6H7.55063L8.625 4.71075ZM15.75 5.16075V6H15.0506L15.75 5.16075ZM17.8954 12.375L19.5 11.2286V13.521L17.8954 12.375ZM19.23 14.25L17.6254 15.3964V13.104L19.23 14.25ZM19.23 10.5L17.6254 11.6464V9.354L19.23 10.5ZM17.8579 8.598L19.5004 7.19025V9.771L17.8579 8.598ZM17.8958 16.125L19.5004 14.9786V17.271L17.8958 16.125ZM19.2679 18.027L17.6254 19.4348V16.854L19.2679 18.027ZM20.2504 2.22038L22.4359 3.75H20.2504V2.22038ZM19.5004 1.875V3.75H16.7715L17.8429 1.875H19.5004ZM4.875 4.71075L5.94937 6H3.80063L4.875 4.71075ZM18.8614 6.75L17.625 7.80975V6.75H18.8614ZM7.125 9V13.9631L6.375 12.6506V9H7.125ZM3 9H3.75V12.375H3V9ZM1.875 13.125H5.7825L7.1745 15.561C7.24125 15.678 7.36538 15.75 7.5 15.75H13.125V21.375H10.125V18.75C10.125 18.543 9.957 18.375 9.75 18.375H5.25C5.043 18.375 4.875 18.543 4.875 18.75V21.375H1.875V13.125ZM5.625 21.375V19.125H9.375V21.375H5.625ZM23.25 23.25H0.75V22.125H23.25V23.25ZM20.625 21.375H16.125V20.625H20.625V21.375ZM18.2636 19.875L19.5 18.8152V19.875H18.2636ZM22.125 7.5V6.0915L23.25 5.754V7.5H22.125Z" fill="var(--fill-0, #FF5F3A)"/>
<path id="Vector_2" d="M8.625 17.25H11.625C11.832 17.25 12 17.082 12 16.875C12 16.668 11.832 16.5 11.625 16.5H8.625C8.418 16.5 8.25 16.668 8.25 16.875C8.25 17.082 8.418 17.25 8.625 17.25Z" fill="var(--fill-0, #FF5F3A)"/>
<path id="Vector_3" d="M6.375 17.25C6.582 17.25 6.75 17.082 6.75 16.875C6.75 16.668 6.582 16.5 6.375 16.5H3.375C3.168 16.5 3 16.668 3 16.875C3 17.082 3.168 17.25 3.375 17.25H6.375Z" fill="var(--fill-0, #FF5F3A)"/>
<path id="Vector_4" d="M3.375 15.375H4.875C5.082 15.375 5.25 15.207 5.25 15C5.25 14.793 5.082 14.625 4.875 14.625H3.375C3.168 14.625 3 14.793 3 15C3 15.207 3.168 15.375 3.375 15.375Z" fill="var(--fill-0, #FF5F3A)"/>
</g>
<defs>
<clipPath id="clip0_0_225">
<rect width="24" height="24" fill="white"/>
</clipPath>
</defs>
</svg>
